# xmcd CD database file
# Copyright (C) 1993-1998 Ti Kan
#
# Track frame offsets:
#	150
#	16217
#	30500
#	45667
#	65457
#	79350
#	94275
#	109995
#	123380
#	137585
#	151327
#	164605
#	179102
#	195245
#
# Disc length: 2834 seconds
#
# Revision: 2
# Processed by: cddbd v1.4PL0 Copyright (c) Steve Scherf et al.
# Submitted via: Gronk 1.4
#
DISCID=bc0b100e
DTITLE=Tubby Justice - Sense
DYEAR=1900
DGENRE=blues
TTITLE0=To Have Seen
TTITLE1=Inside Himself
TTITLE2=Sense
TTITLE3=Baby
TTITLE4=Thicker than Water
TTITLE5=Give In
TTITLE6=Simple Facts
TTITLE7=Pick Yourself Up
TTITLE8=Out of Jazz
TTITLE9=Come Be Mine
TTITLE10=Called Up
TTITLE11=Nowhere
TTITLE12=Angel
TTITLE13=Thin Skin
EXTD=
EXTT0=
EXTT1=
EXTT2=
EXTT3=
EXTT4=
EXTT5=
EXTT6=
EXTT7=
EXTT8=
EXTT9=
EXTT10=
EXTT11=
EXTT12=
EXTT13=
PLAYORDER=
